<svg width="35" height="35" viewBox="0 0 35 35" fill="none" xmlns="http://www.w3.org/2000/svg">
<path d="M14.2188 30.4062C16.8146 29.3854 16.2459 26.5708 14.9334 24.7917C13.6355 22.9688 11.8417 21.7146 10.0334 20.5042C8.74314 19.6909 7.59111 18.6768 6.6209 17.5C6.21256 17.0187 5.38131 16.1292 6.22715 15.9542C7.08756 15.7792 8.57506 16.625 9.3334 16.9458C10.6605 17.5 11.973 18.1417 13.198 18.9L14.6709 16.4208C12.3959 14.9187 9.47923 13.5917 6.76673 13.1979C5.2209 12.9646 3.58756 13.2854 3.06256 14.9625C2.59589 16.4062 3.33964 17.8646 4.18548 19.0021C6.1834 21.6708 9.28965 22.9542 11.6084 25.2583C12.1042 25.7396 12.7021 26.3083 12.9938 26.9792C13.3001 27.6208 13.2271 27.6646 12.5417 27.6646C10.7334 27.6646 8.47298 26.25 7.00006 25.3167L5.52715 27.7958C7.7584 29.1667 11.4917 31.3104 14.2188 30.4062ZM30.3917 7.65625C30.7126 7.33542 30.7126 6.81042 30.3917 6.50417L28.4959 4.60833C28.3432 4.46112 28.1393 4.37887 27.9271 4.37887C27.715 4.37887 27.5111 4.46112 27.3584 4.60833L25.8709 6.09583L28.9042 9.12917L30.3917 7.65625ZM16.0417 15.925V18.9583H19.0751L28.0438 9.98958L25.0105 6.95625L16.0417 15.925Z" fill="#102542"/>
</svg>
