<svg width="35" height="35" viewBox="0 0 35 35" fill="none" xmlns="http://www.w3.org/2000/svg">
<path d="M5.25 7C5.25 6.53587 5.43437 6.09075 5.76256 5.76256C6.09075 5.43437 6.53587 5.25 7 5.25H28C28.4641 5.25 28.9093 5.43437 29.2374 5.76256C29.5656 6.09075 29.75 6.53587 29.75 7V10.5C29.75 10.9641 29.5656 11.4092 29.2374 11.7374C28.9093 12.0656 28.4641 12.25 28 12.25H7C6.53587 12.25 6.09075 12.0656 5.76256 11.7374C5.43437 11.4092 5.25 10.9641 5.25 10.5V7ZM5.25 17.5C5.25 17.0359 5.43437 16.5908 5.76256 16.2626C6.09075 15.9344 6.53587 15.75 7 15.75H17.5C17.9641 15.75 18.4092 15.9344 18.7374 16.2626C19.0656 16.5908 19.25 17.0359 19.25 17.5V28C19.25 28.4641 19.0656 28.9093 18.7374 29.2374C18.4092 29.5656 17.9641 29.75 17.5 29.75H7C6.53587 29.75 6.09075 29.5656 5.76256 29.2374C5.43437 28.9093 5.25 28.4641 5.25 28V17.5ZM24.5 15.75C24.0359 15.75 23.5908 15.9344 23.2626 16.2626C22.9344 16.5908 22.75 17.0359 22.75 17.5V28C22.75 28.4641 22.9344 28.9093 23.2626 29.2374C23.5908 29.5656 24.0359 29.75 24.5 29.75H28C28.4641 29.75 28.9093 29.5656 29.2374 29.2374C29.5656 28.9093 29.75 28.4641 29.75 28V17.5C29.75 17.0359 29.5656 16.5908 29.2374 16.2626C28.9093 15.9344 28.4641 15.75 28 15.75H24.5Z" fill="#102542"/>
</svg>
