<svg width="35" height="35" viewBox="0 0 35 35" fill="none" xmlns="http://www.w3.org/2000/svg">
<path d="M29.1652 5.83333H5.83189C4.22335 5.83333 2.91522 7.14146 2.91522 8.75V26.25C2.91522 27.8585 4.22335 29.1667 5.83189 29.1667H29.1652C30.7738 29.1667 32.0819 27.8585 32.0819 26.25V8.75C32.0819 7.14146 30.7738 5.83333 29.1652 5.83333ZM9.47772 10.2083C10.0579 10.2083 10.6143 10.4388 11.0245 10.849C11.4348 11.2593 11.6652 11.8157 11.6652 12.3958C11.6652 12.976 11.4348 13.5324 11.0245 13.9426C10.6143 14.3529 10.0579 14.5833 9.47772 14.5833C8.89756 14.5833 8.34116 14.3529 7.93093 13.9426C7.52069 13.5324 7.29022 12.976 7.29022 12.3958C7.29022 11.8157 7.52069 11.2593 7.93093 10.849C8.34116 10.4388 8.89756 10.2083 9.47772 10.2083ZM17.4986 24.7917H7.29022L13.1236 17.5L15.3111 20.4167L19.6861 14.5833L27.7069 24.7917H17.4986Z" fill="#102542"/>
</svg>
